<svg width="93" height="112" viewBox="0 0 93 112" fill="none" xmlns="http://www.w3.org/2000/svg">
<path d="M43.5269 20.7909L31.1366 20.516C31.1112 20.516 31.0862 20.5095 31.0641 20.4969C31.042 20.4844 31.0235 20.4663 31.0105 20.4445C30.9976 20.4226 30.9905 20.3977 30.99 20.3723C30.9895 20.3469 30.9957 20.3218 31.0079 20.2995L37.8349 7.76295C37.8517 7.73411 37.858 7.70041 37.8529 7.66748C37.8479 7.63454 37.8318 7.60424 37.8072 7.58172C37.7826 7.55919 37.7511 7.54574 37.7179 7.54358C37.6846 7.54147 37.6516 7.55071 37.6243 7.5699L27.5213 14.3559C27.5018 14.3676 27.48 14.3747 27.4574 14.3768C27.4347 14.379 27.4119 14.376 27.3906 14.3681C27.3693 14.3603 27.35 14.3478 27.3341 14.3314C27.3183 14.3152 27.3063 14.2955 27.299 14.274L23.087 0.1053C23.0782 0.0749209 23.0597 0.0482392 23.0344 0.0292501C23.0091 0.010261 22.9783 0 22.9466 0C22.915 0 22.8842 0.010261 22.8589 0.0292501C22.8336 0.0482392 22.8151 0.0749209 22.8062 0.1053L19.5829 14.1102C19.5787 14.1338 19.5685 14.1559 19.5533 14.1744C19.5382 14.193 19.5185 14.2073 19.4962 14.2161C19.4739 14.2249 19.4498 14.2278 19.426 14.2247C19.4023 14.2215 19.3798 14.2123 19.3606 14.198L7.57867 6.34725C7.55234 6.32882 7.52063 6.31964 7.48852 6.32104C7.4564 6.32245 7.42569 6.33444 7.40106 6.35503C7.37637 6.37568 7.35923 6.40388 7.35221 6.43523C7.34519 6.46665 7.34876 6.49941 7.36222 6.5286L13.3936 19.7028C13.4049 19.7258 13.41 19.7514 13.4084 19.777C13.4067 19.8025 13.3983 19.8272 13.3841 19.8486C13.3699 19.8699 13.3503 19.8871 13.3273 19.8985C13.3044 19.9099 13.2788 19.915 13.2532 19.9134L0.160868 19.3577C0.125943 19.3541 0.0909015 19.3633 0.0621195 19.3835C0.033396 19.4037 0.0129212 19.4336 0.00438024 19.4677C-0.00416076 19.5018 -0.000124465 19.5378 0.015729 19.5691C0.0315825 19.6005 0.0581997 19.6251 0.0906672 19.6385C18.3602 28.8347 18.4597 28.9049 18.5182 28.9224C23.5901 30.4961 23.1982 30.4025 23.2742 30.3674L43.5854 21.06C43.611 21.044 43.631 21.0206 43.6427 20.9928C43.6545 20.9651 43.6574 20.9343 43.6509 20.9049C43.6446 20.8754 43.6292 20.8486 43.607 20.8282C43.5848 20.8079 43.5568 20.7948 43.5269 20.7909Z" fill="white"/>
<path d="M28.9608 41.2893C27.9637 40.7636 26.8377 40.5324 25.7141 40.6224C20.9934 40.7361 16.2933 41.2864 11.6741 42.2662C11.1417 42.3247 12.1421 42.5587 12.5223 42.6406C13.7407 42.8522 14.9802 42.9151 16.2137 42.8278C16.5881 42.8278 16.2663 43.6176 15.9797 43.6527C14.5586 43.813 13.1468 44.0473 11.7501 44.3547C11.4134 44.4033 11.081 44.4776 10.7556 44.577C11.2002 45.2907 12.6335 45.4603 13.3062 45.4779C14.4361 45.4077 15.5693 45.4077 16.6992 45.4779C17.097 45.5422 16.746 46.2735 16.4652 46.3027C14.9213 46.4723 13.3908 46.7479 11.8847 47.1276C11.7267 47.1744 11.4986 47.1627 11.5337 47.3323C11.5688 47.502 11.8086 47.5429 11.9315 47.5897C12.6101 47.8179 13.6046 47.6424 15.0788 47.5546C16.6934 47.4552 18.3255 47.3733 19.946 47.3967C20.7591 47.3967 21.701 47.5722 21.9876 48.4672C23.5496 48.2976 30.2771 47.6307 30.2771 47.6307C30.3941 44.6589 30.7743 42.4183 28.9608 41.2893ZM26.8841 45.823C26.2406 44.653 24.8717 44.5594 23.6549 44.653C22.252 44.7634 20.8572 44.9587 19.478 45.238C19.0158 45.3258 19.2966 44.4775 19.6301 44.419C21.155 44.1164 22.6993 43.921 24.2516 43.834C25.4801 43.7755 26.8197 44.0037 27.4457 45.1854C27.627 45.4545 27.0713 46.1623 26.8841 45.823Z" fill="#FFDE26"/>
<path d="M91.532 79.9459C91.1699 79.5522 90.7791 79.1866 90.362 78.852C89.2329 77.8715 88.043 76.963 86.7993 76.1317C86.2143 78.0505 83.8743 80.8527 82.9968 81.9817C83.2601 82.1689 84.8162 84.3802 86.2085 84.4797C85.6703 83.6665 85.1145 82.8651 84.5295 82.0812C84.3482 81.8355 84.7226 81.1686 85.0443 81.3441L87.3843 82.6428C87.9079 82.9903 88.4642 83.2863 89.0457 83.5261C88.3227 82.6071 87.5177 81.7553 86.6414 80.9814C86.3664 80.7415 86.7935 79.9752 87.0977 80.1975C88.0892 80.996 89.237 81.5781 90.4673 81.9057C89.705 80.896 88.7825 80.0185 87.7353 79.3083C87.4253 79.0977 87.8757 78.3255 88.1916 78.5185C89.058 79.0503 89.9589 79.523 90.8885 79.9342C91.5437 80.256 91.9766 80.4022 91.532 79.9459Z" fill="#FFDE26"/>
<path d="M54.4956 43.9395L55.7416 44.0799C57.1866 41.114 60.837 41.3129 61.5039 44.4309C61.5694 44.3945 61.6407 44.3688 61.7145 44.3549C61.9139 43.5428 62.3498 42.808 62.9664 42.243C62.809 42.1036 62.6785 41.9372 62.5803 41.7516C62.4106 41.3865 62.3574 40.978 62.4282 40.5816C61.5594 40.4435 60.7673 40.0021 60.1935 39.3356C58.6491 40.2365 56.467 40.1838 55.3438 39.5052C54.5348 39.8871 53.6333 40.0293 52.7464 39.9147C52.7113 40.0668 52.6762 40.2189 52.6353 40.371C54.0217 40.9092 54.636 42.4887 54.4956 43.9395Z" fill="#FFDE26"/>
<path d="M69.1376 46.215C67.9676 46.0161 67.3358 47.0866 66.5636 47.7535C65.9833 48.2615 65.2298 48.5262 64.4593 48.4924C63.6889 48.4586 62.9612 48.129 62.4276 47.5722C61.9169 47.0206 61.6203 46.3049 61.5911 45.5539C61.3688 47.5137 59.8361 49.333 57.8763 49.0932C55.9166 48.8533 54.9864 46.7532 55.4369 44.9046L54.2669 44.7817C52.9857 48.2508 49.0779 48.0987 48.3291 44.9514C46.9719 45.3843 46.2933 45.162 45.4041 45.4486C43.9475 45.9225 45.3339 47.1685 46.0769 47.4493C46.8245 47.6312 47.5534 47.8839 48.2531 48.204C49.4231 48.9469 49.3178 50.31 49.3119 51.5385C49.2137 53.1806 49.5067 54.8226 50.166 56.3296C52.8863 61.6473 61.398 62.4721 65.8382 59.436C66.7403 58.7691 67.4972 57.9255 68.0612 56.9556C68.0085 55.341 68.6462 53.6971 68.5058 52.0299C68.504 51.8905 68.5514 51.755 68.6403 51.6478C68.7298 51.5405 68.8539 51.4686 68.9913 51.4449C69.3172 51.4366 69.6378 51.3604 69.9326 51.2209C70.2274 51.0815 70.4901 50.8821 70.7031 50.6353C70.916 50.3886 71.0757 50.1 71.1705 49.7881C71.2658 49.4761 71.2945 49.1478 71.2553 48.8241C71.2301 48.2193 71.0102 47.6387 70.6288 47.1687C70.2473 46.6987 69.7243 46.3642 69.1376 46.215ZM58.8006 58.3303C57.9887 58.49 57.1515 58.4631 56.3518 58.2514C55.5521 58.0396 54.8109 57.6482 54.185 57.1077C52.8453 55.7973 53.8047 53.9019 55.4544 53.5158C56.3436 53.3052 57.4551 53.2642 58.0226 52.4277C58.2396 51.9781 58.5146 51.5591 58.8416 51.1816C59.4067 50.7448 60.1181 50.5414 60.8288 50.6133C61.539 50.6851 62.1954 51.0267 62.6616 51.5677C64.0305 53.235 62.1761 57.5991 58.8006 58.3362V58.3303ZM69.1259 47.8764C68.9697 47.8791 68.8188 47.9308 68.6936 48.0243C68.569 48.1177 68.4765 48.2482 68.4297 48.397C68.3888 48.5842 68.2425 48.8533 68.0319 48.8884C67.8213 48.9235 67.7511 48.7305 67.7862 48.5608C67.8594 48.1634 68.06 47.8005 68.3572 47.5271C68.655 47.2538 69.0335 47.0848 69.4359 47.0457C69.7694 47.0281 69.588 47.853 69.1259 47.8822V47.8764Z" fill="#FFDE26"/>
<path d="M52.9395 63.3671C53.3297 62.5873 53.7193 61.8069 54.1095 61.0271C53.8287 60.9042 53.5245 60.7755 53.2905 60.6293C53.2408 60.6731 53.1834 60.7071 53.1208 60.7287C52.7464 61.3781 52.3896 62.0333 52.0444 62.6943C52.2591 63.0126 52.5744 63.2495 52.9395 63.3671Z" fill="#6CECC4"/>
<path d="M54.7768 64.7946C53.8408 64.5723 52.2437 64.3968 51.6178 63.5427C48.5711 69.6431 46.647 76.2413 45.9374 83.0232C46.6172 82.8922 47.3116 82.8512 48.0025 82.9004C50.1535 82.8659 52.3046 82.9911 54.4375 83.2748C54.7124 81.3033 54.6071 73.8738 58.8074 65.1398C57.4537 65.2632 56.0895 65.1462 54.7768 64.7946Z" fill="#6CECC4"/>
<path d="M56.9812 61.8406C56.3962 63.5312 56.3553 63.9466 56.2441 64.1806C57.2322 64.366 58.2431 64.3935 59.2393 64.2625C59.6576 63.4528 60.1285 62.6707 60.6492 61.9225C59.4283 62.0553 58.1951 62.0278 56.9812 61.8406Z" fill="#6CECC4"/>
<path d="M55.6894 64.0983C55.8766 63.4021 56.2744 62.0508 56.4207 61.7583C55.8246 61.6401 55.2378 61.4775 54.6657 61.2727C54.62 61.3616 54.561 61.4424 54.4902 61.5126C54.1392 62.1853 53.7999 62.8639 53.4664 63.5484C53.9812 63.6595 54.7242 63.8935 55.6894 64.0983Z" fill="#6CECC4"/>
<path d="M27.1762 10.5299C26.8635 10.471 26.5418 10.4799 26.2328 10.556C25.9238 10.632 25.6347 10.7736 25.3852 10.971C25.1355 11.1685 24.9313 11.4172 24.7861 11.7004C24.641 11.9836 24.5583 12.2946 24.5437 12.6125C24.5437 15.5375 29.2237 16.0523 29.3407 12.9752C29.3217 12.3792 29.0951 11.8085 28.6998 11.3619C28.3045 10.9154 27.7656 10.6211 27.1762 10.5299ZM28.5685 13.3496C28.4456 13.4491 28.2117 13.5134 28.159 13.3028C28.0848 12.8679 27.8639 12.4715 27.5331 12.1796C27.4171 12.0863 27.2839 12.0168 27.1411 11.9749C26.7316 11.9047 27.1411 11.0798 27.457 11.1383C28.2117 11.2729 28.627 12.0919 28.7966 12.7588C28.8092 12.8658 28.7948 12.9742 28.755 13.0743C28.7152 13.1743 28.6511 13.2629 28.5685 13.3321V13.3496Z" fill="#FF3E74"/>
<path d="M19.7183 8.93255C19.5587 8.89183 19.3921 8.88674 19.2304 8.91757C19.0686 8.94846 18.9156 9.01451 18.7822 9.11103C18.6488 9.20762 18.5382 9.33234 18.4584 9.47642C18.3786 9.62045 18.3314 9.78027 18.3202 9.9446C18.2851 11.413 20.8181 11.9395 20.9059 10.3073C20.8972 9.97625 20.7742 9.65836 20.5578 9.40775C20.3412 9.15713 20.0446 8.98918 19.7183 8.93255Z" fill="#FF3E74"/>
<path d="M25.9184 2.66792C25.7328 2.84776 25.586 3.06389 25.4875 3.30286C25.3889 3.54189 25.3406 3.79859 25.3456 4.05704C25.3505 4.3155 25.4086 4.57021 25.5162 4.8052C25.6238 5.04025 25.7786 5.25062 25.9711 5.42325C26.3368 5.77952 26.8192 5.99123 27.329 6.01919C27.8388 6.04716 28.3415 5.8895 28.744 5.57535C29.6273 4.8324 29.3992 3.5922 28.6913 2.82587C28.3264 2.46875 27.8443 2.25597 27.3345 2.22693C26.8247 2.19789 26.3216 2.35455 25.9184 2.66792Z" fill="#FF3E74"/>
<path d="M59.351 57.3832C60.1156 57.124 60.7994 56.6695 61.3347 56.0651C61.87 55.4611 62.2391 54.7277 62.4047 53.9375C61.9472 53.8414 61.4722 53.8682 61.0282 54.015C60.5842 54.1618 60.1869 54.4235 59.8769 54.7734C59.5668 55.1233 59.3551 55.5491 59.2626 56.0072C59.1702 56.4659 59.2006 56.9403 59.351 57.3832Z" fill="#FF3E74"/>
<path d="M74.1923 58.3542C74.0928 58.4829 74.3444 58.8749 74.4088 58.9802C74.5258 59.1644 74.6697 59.33 74.8358 59.4716C75.1868 58.5356 74.438 58.0091 74.1923 58.3542Z" fill="#FF3E74"/>
<path d="M79.5919 52.7781C77.6204 53.9481 75.8186 52.9653 76.1696 51.6958C76.6903 49.8063 78.7846 50.7715 79.8727 51.8128C82.1308 50.0578 81.107 45.7756 78.925 44.0791C78.3359 43.6802 77.7222 43.3188 77.0881 42.9969C75.9824 42.3358 75.0172 41.2419 75.3799 39.873C75.4155 39.7763 75.4711 39.6879 75.5425 39.6135C75.6139 39.5391 75.6999 39.48 75.7952 39.4401L75.8479 39.2646C75.6841 39.3231 75.5554 39.2646 75.6256 38.9896C76.0117 37.4394 76.2749 35.8131 75.4676 34.3447C74.679 33.0021 73.4552 31.9699 71.9986 31.4197C68.2604 29.9338 65.5051 32.4961 62.5333 31.2852C61.1702 30.7002 60.0646 29.9514 58.5553 29.8402C57.1559 29.7502 55.7572 30.0243 54.4954 30.6358C52.0969 31.8058 49.09 34.684 50.7046 37.5681C51.4709 38.9428 53.1616 39.3231 54.6943 38.937C54.4357 38.6429 54.3006 38.2605 54.3169 37.8693C54.3333 37.4782 54.5 37.1083 54.782 36.8368C55.993 35.386 57.707 37.2873 56.1334 38.9136C57.3408 39.3116 58.653 39.2512 59.8189 38.7439C59.0642 37.1644 60.5911 35.3626 61.5212 36.3045C62.0653 36.8544 61.7552 37.7377 61.3633 38.2818C61.2182 38.4793 61.0538 38.6616 60.8719 38.8258C61.3791 39.3117 62.0144 39.6425 62.7029 39.7794C63.0188 39.1944 63.7735 38.3344 64.4228 38.5275C65.3471 38.8083 65.0078 40.5516 63.0656 40.6452C63.0797 40.8666 63.1428 41.0821 63.2499 41.2763C63.3569 41.4704 63.5061 41.6385 63.6857 41.7684C64.4696 41.3881 65.663 41.3121 65.5928 42.1779C65.4992 43.3479 64.3468 43.1665 63.4751 42.6459C62.9264 43.0058 62.5303 43.5559 62.3636 44.1903C62.1641 44.744 62.1589 45.3489 62.3484 45.9061C62.5379 46.4632 62.9112 46.9395 63.4067 47.2569C63.9022 47.5743 64.4907 47.7141 65.0757 47.6533C65.6613 47.5925 66.2088 47.3347 66.6283 46.9222C67.3946 46.1793 68.1551 45.255 69.3485 45.3895C69.8826 45.4875 70.381 45.7261 70.7929 46.0808C71.2041 46.4356 71.513 46.8937 71.6885 47.4078C72.4373 49.4319 71.2732 51.8187 69.1789 52.234C69.1379 53.679 68.5939 55.159 68.6699 56.5572C68.7278 57.5072 69.0981 58.4116 69.7235 59.1288C70.3489 59.8466 71.1942 60.3369 72.1273 60.5235C72.8597 60.6902 73.6284 60.5691 74.2742 60.1842C72.8117 58.9732 73.736 57.1305 74.7656 57.382C75.6314 57.5926 75.7192 58.9147 75.3038 59.7864C76.3978 60.2368 77.8427 59.6226 78.691 58.8504C79.3163 58.321 79.7954 57.6406 80.0833 56.8737C80.3711 56.1067 80.4577 55.2787 80.3348 54.4687C80.2061 53.8601 79.9534 53.2845 79.5919 52.7781Z" fill="#FF3E74"/>
<path d="M76.9309 52.0178C77.0385 52.1428 77.1725 52.2426 77.3229 52.3103C77.6136 52.4218 77.9242 52.4741 78.2355 52.464C78.5467 52.4539 78.8532 52.3818 79.1364 52.2518C78.9263 52.0186 78.6713 51.8301 78.387 51.6975C78.1027 51.5648 77.7944 51.4907 77.4808 51.4796C77.1064 51.4796 76.6677 51.5732 76.9309 52.0178Z" fill="#FF3E74"/>
<path d="M64.107 39.3531C64.0017 39.084 63.4752 39.6222 63.329 39.8036C63.4179 39.8019 63.5062 39.7901 63.5922 39.7685C63.6683 39.7451 64.1889 39.5462 64.107 39.3531Z" fill="#FF3E74"/>
<path d="M60.9132 37.4401C60.9775 36.7205 60.7669 36.7615 60.2872 37.5512C60.289 37.8348 60.3592 38.1139 60.492 38.3644C61.0185 37.9607 60.96 37.9607 60.9132 37.4401Z" fill="#FF3E74"/>
<path d="M55.0045 37.7038C55.0074 37.8894 55.0589 38.0711 55.1543 38.2304C55.2502 38.3896 55.3859 38.5208 55.5486 38.6105C55.9698 38.3648 56.2564 38.0255 55.9932 37.5283C55.7299 37.031 55.0689 37.0895 55.0045 37.7038Z" fill="#FF3E74"/>
<path d="M48.9675 44.3556C49.0453 44.8046 49.2365 45.2262 49.5232 45.5805C49.8098 45.9348 50.1825 46.2098 50.6055 46.3797C52.0797 46.9179 53.4837 45.8415 53.8171 44.4141C54.601 39.8686 48.1134 40.1026 48.9675 44.3556ZM50.7225 41.8576C51.1788 41.6412 51.1495 42.4426 50.7225 42.6123C50.5932 42.6643 50.4826 42.7553 50.4071 42.8727C50.3317 42.9901 50.2948 43.1281 50.3013 43.2675C50.3007 43.384 50.2702 43.4985 50.2141 43.6007C50.1579 43.7028 50.0772 43.7893 49.9795 43.8525C49.9462 43.8757 49.9064 43.889 49.866 43.8908C49.8251 43.8926 49.7847 43.8829 49.749 43.8628C49.7133 43.8426 49.6847 43.8127 49.6654 43.7768C49.6461 43.7408 49.6373 43.7001 49.6402 43.6594C49.6355 43.2868 49.7356 42.9203 49.9286 42.6017C50.1222 42.2831 50.4013 42.0253 50.7341 41.8576H50.7225Z" fill="white"/>
<path d="M60.8963 46.2154C61.1303 44.8582 60.516 43.3314 59.1003 42.9277C58.7675 42.8466 58.4212 42.8348 58.0836 42.8932C57.7455 42.9516 57.4237 43.0788 57.1371 43.2671C56.851 43.4553 56.6059 43.7004 56.4187 43.9872C56.2309 44.274 56.1046 44.5964 56.0466 44.9343C55.8963 45.5808 55.9782 46.2595 56.2777 46.8519C56.5772 47.4443 57.0751 47.9126 57.6846 48.1752C59.1588 48.6841 60.5628 47.6077 60.8963 46.2154ZM58.1117 44.2849C58.0041 44.363 57.9145 44.4637 57.8502 44.5799C57.7853 44.6961 57.7467 44.825 57.7373 44.9577C57.7367 45.0743 57.7075 45.189 57.6513 45.2912C57.5951 45.3935 57.5138 45.4799 57.4155 45.5427C57.2576 45.6246 57.0645 45.5427 57.0762 45.3496C57.0955 45.0269 57.181 44.7115 57.3278 44.4236C57.4752 44.1356 57.68 43.8813 57.9303 43.6765C58.0649 43.5712 58.2696 43.5186 58.334 43.7233C58.3463 43.8237 58.3322 43.9255 58.293 44.0188C58.2539 44.1121 58.1918 44.1937 58.1117 44.2557V44.2849Z" fill="white"/>
<path d="M54.5772 91.1189C54.5246 90.7269 54.3783 84.1983 54.3783 84.1398C53.8694 84.0696 52.9919 83.9643 52.1729 83.8941L52.8105 85.0641C52.986 85.3742 52.4303 86.0879 52.2255 85.7486C51.1959 83.8649 51.2252 83.9936 51.2369 83.8239C50.0008 83.742 48.7606 83.7128 47.5163 83.7362C47.0132 83.7362 46.1473 83.6309 45.8139 84.0462C45.5886 84.5692 45.4693 85.132 45.4629 85.7018C45.302 86.908 45.2726 88.1278 45.3751 89.3405C45.38 89.4715 45.3405 89.6008 45.263 89.7073C45.1856 89.8131 45.0746 89.8904 44.9481 89.9255C44.8371 89.9348 44.7256 89.9348 44.6146 89.9255C44.4684 92.4059 44.4391 94.9916 44.5386 97.5305L54.273 98.0628C54.858 93.4706 54.899 93.453 54.858 92.8739C54.8171 92.2947 54.665 91.7214 54.5772 91.1189Z" fill="white"/>
<path d="M70.0045 91.3365C68.3039 92.0099 66.5214 92.4562 64.7044 92.6645C63.0371 92.8868 61.3816 93.3899 59.7026 93.4835C60.5918 95.4081 61.4576 97.1514 62.4989 98.9532C62.6159 99.1638 62.8675 99.8483 63.0839 99.9594C63.1489 99.994 63.2208 100.012 63.2945 100.012L71.8297 96.0458C70.5017 92.5416 70.2794 91.904 70.0045 91.3365Z" fill="white"/>
<path d="M92.2921 79.5893C92.0611 79.1757 91.7387 78.8194 91.3503 78.548C90.0223 77.3265 88.5961 76.2173 87.0856 75.231C87.0406 75.2135 86.9903 75.2135 86.9452 75.231C86.9534 74.8285 86.8704 74.429 86.7025 74.0634C86.534 73.6977 86.2853 73.3748 85.9741 73.1192C84.7456 72.0018 83.2188 71.1653 81.8791 70.1942C77.4448 66.9065 72.952 62.9285 67.6168 59.0382C67.5466 58.9856 67.3594 58.9973 67.3477 58.9739C67.6595 58.6439 67.9392 58.2853 68.1843 57.9033C68.8512 60.9804 72.8292 62.5833 74.8065 60.5417C76.7487 61.4718 78.9424 59.8748 80.0715 58.073C81.3877 56.0138 81.2824 53.703 80.2411 52.3049C82.821 49.9181 81.8967 44.8695 78.8313 42.9858C77.6613 42.2838 75.526 41.4999 75.9823 39.7625C76.1344 39.1775 75.4383 39.5519 75.3447 39.9204C74.982 41.2952 75.9297 42.3833 77.0529 43.0443C77.7057 43.3489 78.3393 43.6947 78.9483 44.0798C81.1128 45.7646 82.1658 50.0175 79.896 51.8135C78.8079 50.7722 76.7136 49.8069 76.1929 51.6965C75.8419 52.9601 77.6379 53.978 79.6152 52.7787C79.982 53.2763 80.2429 53.8436 80.3815 54.446C80.5044 55.2559 80.4178 56.084 80.13 56.8509C79.8422 57.6178 79.363 58.2982 78.7377 58.8276C77.8894 59.5998 76.4445 60.2141 75.3505 59.7636C75.4254 59.6063 75.4845 59.4413 75.526 59.2722C75.684 58.6346 75.5962 57.5523 74.8123 57.3593C74.0284 57.1662 73.6423 57.9443 73.5663 58.5293C73.5511 58.8387 73.6119 59.147 73.7435 59.4278C73.8752 59.708 74.0735 59.952 74.3209 60.138C73.6757 60.5229 72.9064 60.644 72.174 60.4773C71.3175 60.3053 70.5331 59.8777 69.9241 59.2512C69.3151 58.6246 68.9109 57.8284 68.7634 56.9673C68.5236 55.3995 69.1788 53.7849 69.2256 52.1937C71.3199 51.7784 72.484 49.3916 71.7352 47.3675C71.5597 46.8533 71.2509 46.3953 70.8396 46.0405C70.4278 45.6857 69.9293 45.4471 69.3952 45.3492C68.2252 45.2147 67.4413 46.139 66.675 46.8819C66.3094 47.2475 65.8414 47.4943 65.3336 47.5898C64.8252 47.6853 64.2999 47.6251 63.8266 47.4171C63.3528 47.2091 62.9532 46.863 62.6794 46.4241C62.4062 45.9852 62.2717 45.4739 62.2933 44.9573C62.291 44.4965 62.4016 44.0421 62.6157 43.6341C62.8298 43.226 63.141 42.8769 63.5218 42.6173C64.3935 43.1379 65.5459 43.3193 65.6395 42.1493C65.7097 41.2835 64.5163 41.3537 63.7324 41.7398C63.5528 41.6099 63.4037 41.4418 63.2966 41.2476C63.1895 41.0534 63.1264 40.8379 63.1123 40.6166C65.0019 40.5288 65.4114 38.7855 64.4695 38.4989C63.8202 38.3058 63.0655 39.1482 62.7496 39.7508C62.0652 39.6296 61.4299 39.3149 60.9186 38.844C61.1005 38.6798 61.2649 38.4975 61.41 38.3C61.8019 37.7559 62.112 36.8726 61.5679 36.3227C60.6378 35.3808 59.1051 37.1826 59.8656 38.7621C58.6997 39.2693 57.3875 39.3297 56.1801 38.9318C57.0049 38.0777 56.9289 37.0364 56.4082 36.5918C56.2895 36.4987 56.1526 36.4315 56.0063 36.3944C55.8601 36.3574 55.7074 36.3514 55.5588 36.3767C55.4102 36.4021 55.2681 36.4582 55.1429 36.5416C55.0171 36.625 54.91 36.7337 54.8287 36.8609C54.5468 37.1324 54.38 37.5021 54.3637 37.8933C54.3473 38.2845 54.4824 38.6669 54.741 38.961C53.1966 39.3705 51.5176 38.961 50.7513 37.5921C49.1367 34.7081 52.1436 31.8006 54.5421 30.6599C55.8039 30.0483 57.2027 29.7742 58.602 29.8643C60.1113 29.9754 61.2169 30.7535 62.58 31.3092C65.5576 32.5202 68.2954 29.952 72.0453 31.4438C73.5019 31.9939 74.7258 33.0261 75.5143 34.3688C76.3216 35.8371 76.0642 37.4634 75.6723 39.0137C75.526 39.5987 76.2163 39.2243 76.3099 38.8499C76.7662 37.0364 76.9885 35.1468 75.9589 33.4854C75.419 32.6634 74.7211 31.957 73.9056 31.4077C73.0901 30.8582 72.1734 30.4768 71.2087 30.2855C68.4007 29.7005 66.6106 30.9758 64.3818 30.8705C62.3343 30.7476 61.3573 29.0102 58.2393 29.0628C54.6766 29.1155 50.3827 31.7538 49.7392 35.4978C49.4058 37.4108 50.3242 39.4056 52.2664 39.897L52.1611 40.3065C50.0317 39.9614 48.2182 42.1259 48.3001 44.267C47.2237 44.4951 46.0127 44.384 45.0709 44.9456C44.8414 45.0772 44.6446 45.259 44.4953 45.4774C44.346 45.6958 44.248 45.9451 44.2086 46.2067C44.1692 46.4683 44.1895 46.7354 44.2679 46.9881C44.3463 47.2408 44.4808 47.4725 44.6614 47.6658C45.7085 48.8358 48.0369 48.321 48.6102 49.9532C48.8793 50.7371 48.7213 51.7082 48.733 52.5213C48.7348 53.3989 48.819 54.2744 48.9846 55.1363C49.4251 57.1007 50.5799 58.8311 52.2255 59.9918C47.3232 60.3428 42.1927 63.6597 37.4308 61.4367C34.9855 60.2667 33.8213 57.7688 33.3358 55.2416C32.9438 53.159 32.9731 50.9184 32.6104 48.6428C32.4875 47.8296 32.5636 47.543 30.9373 47.6775C30.963 47.6242 30.9788 47.5668 30.9841 47.5079C31.0718 44.7057 31.3468 42.746 30.3991 41.4239C29.1355 39.6689 26.696 39.821 24.8006 39.9029C21.0563 40.0532 17.3278 40.4755 13.6447 41.1665C12.8959 41.3069 11.6615 41.3069 11.135 41.9445C10.4038 42.8396 11.1994 43.29 12.3401 43.5182C11.3573 43.7346 9.95918 43.916 10.0703 44.9105C10.1756 45.7938 11.5913 46.2033 12.3226 46.3203C12.0856 46.3762 11.8545 46.4546 11.6323 46.5543C10.6261 47.0048 10.4623 48.1514 11.6323 48.5141C12.5098 48.7949 12.8023 48.5141 16.7335 48.3854C17.7104 48.3503 18.6991 48.3093 19.6585 48.3269C20.1866 48.2758 20.7155 48.4148 21.1502 48.7188C20.9594 49.0008 20.8299 49.3196 20.77 49.6548C20.8343 55.341 20.8987 61.2905 23.186 66.6198C24.1099 68.8504 25.7866 70.6867 27.9245 71.8088C32.2828 74.1137 42.5495 74.2073 42.9239 74.0786C40.9393 78.0993 39.7721 82.4739 39.49 86.9486C39.4373 88.0133 39.1565 89.4699 40.4494 89.8326C40.9817 89.9847 41.1397 89.9379 44.012 90.0549C43.8482 92.664 43.819 95.279 43.9067 97.8881C42.8186 98.5082 41.7539 99.1809 40.7185 99.8946C39.1799 100.953 37.3372 102.182 36.4129 103.867C35.4886 105.552 36.4714 106.505 38.2205 106.558C40.5605 106.628 42.9005 105.347 44.8661 104.259C46.2801 103.481 47.6473 102.621 48.9612 101.685C49.008 102.855 49.0489 104.025 49.0957 105.242C49.0957 105.341 49.1425 105.47 49.2654 105.476C50.371 105.528 51.4884 105.575 52.594 105.528C53.454 105.487 53.881 105.481 54.273 104.159C54.7304 102.308 54.9405 100.404 54.8989 98.4965C55.4196 94.4658 55.4839 94.068 55.519 93.3134C56.6013 93.3485 57.6777 93.3134 58.7541 93.3134C58.7453 93.3596 58.7453 93.4076 58.7541 93.4538C59.8872 95.9605 61.1485 98.407 62.5332 100.784C61.8604 101.843 61.2403 102.942 60.6612 104.054C59.7954 105.715 58.6956 107.716 58.6956 109.641C58.6956 111.425 60.357 111.554 61.6674 110.858C63.6856 109.781 65.1423 107.628 66.3474 105.762C67.205 104.443 67.9866 103.076 68.6874 101.667C69.2765 102.685 69.8615 103.703 70.4424 104.721C70.5009 104.832 70.6413 104.797 70.729 104.756C71.7294 104.282 72.7356 103.797 73.6891 103.235C74.5198 102.744 74.8591 102.264 74.6544 101.287C74.3209 99.4559 73.3849 97.6541 72.5484 96.0219C72.0219 94.6355 70.7349 91.2366 70.5945 90.9383C72.8175 89.9847 73.2679 88.2473 73.6306 85.8605C73.9933 83.4737 74.2741 81.0342 74.4672 78.6065C75.8244 80.028 77.2693 81.4379 78.7669 82.8828C79.16 83.3941 79.7252 83.7457 80.3581 83.8715C80.7518 83.8481 81.1356 83.7387 81.4825 83.5509C81.8294 83.3625 82.1301 83.1004 82.3647 82.7834C82.3705 82.8056 82.3828 82.8261 82.3998 82.8419C83.3943 83.9358 85.12 86.112 86.8048 85.2404C87.0271 85.1292 87.2319 84.7548 87.0856 84.5208C86.8048 84.0821 86.5006 83.6492 86.2198 83.2163L87.3606 83.8422C88.1094 84.2576 88.8933 84.8133 89.7825 84.5267C90.0282 84.4506 90.3207 84.0236 90.1393 83.772C89.8761 83.3976 89.5894 83.0291 89.3028 82.6781C89.8813 82.8875 90.4956 82.9828 91.1104 82.9589C91.4146 82.9589 91.7247 82.4792 91.5492 82.1984C91.3076 81.8128 91.0437 81.442 90.7594 81.0869C90.9455 81.1641 91.1432 81.2074 91.3444 81.2156C91.5346 81.2144 91.7206 81.1635 91.885 81.0681C92.0494 80.9728 92.1862 80.8365 92.2816 80.6727C92.377 80.5083 92.4284 80.3223 92.4302 80.1321C92.4319 79.942 92.3846 79.7554 92.2921 79.5893ZM87.7291 79.3319C88.7775 80.0403 89.7006 80.9184 90.4611 81.9293C89.2308 81.6017 88.0831 81.0196 87.0915 80.2211C86.7873 79.9988 86.3602 80.7651 86.6352 81.005C87.5115 81.7789 88.3165 82.6307 89.0395 83.5497C88.4586 83.3087 87.9029 83.0127 87.3781 82.6664L85.0381 81.3677C84.7164 81.1922 84.342 81.8591 84.5233 82.1048C85.1083 82.8887 85.6641 83.6901 86.2023 84.5033C84.8451 84.4038 83.2071 82.1633 82.9906 82.0053C83.9617 80.771 86.1964 78.039 86.7931 76.1553C88.0368 76.9866 89.2267 77.8951 90.3558 78.8756C90.7735 79.2096 91.1648 79.5752 91.5258 79.9695C91.9879 80.4258 91.5258 80.2679 90.8764 79.9695C89.9469 79.5583 89.046 79.0856 88.1796 78.5538C87.8695 78.3491 87.4191 79.1213 87.7233 79.3319H87.7291ZM61.7493 71.8088C62.1213 72.1352 62.4232 72.533 62.6385 72.9788C62.7789 73.5761 62.7274 74.202 62.4922 74.7689C61.7902 77.0036 60.901 79.1915 60.0996 81.3852C58.6956 85.2638 57.4612 88.8557 56.1742 91.6052C56.0514 91.8626 55.9695 92.4827 55.636 92.0907C55.519 91.9562 55.5132 91.535 55.4839 91.3595C55.2072 89.2786 55.0668 87.1814 55.0627 85.0824C55.0019 79.6185 55.9274 74.1885 57.7947 69.0534C60.0528 62.9168 61.2345 62.5073 61.3047 61.9047C63.3083 61.6608 65.2002 60.8488 66.7569 59.5647L67.3419 61.1384C67.5934 61.7994 68.0907 62.6711 67.5291 63.3497C67.1506 63.7077 66.7393 64.0289 66.3006 64.3091C64.9954 65.3439 63.7529 66.4554 62.58 67.6377C61.9763 68.2005 61.5322 68.913 61.293 69.7028C61.1894 70.0643 61.1772 70.4457 61.2567 70.8131C61.3363 71.1805 61.5053 71.5227 61.7493 71.8088ZM48.2943 48.2099C47.5946 47.8898 46.8657 47.6371 46.118 47.4552C45.3751 47.1744 43.9886 45.9284 45.4453 45.4545C46.3755 45.1562 46.9839 45.396 48.3703 44.9573C49.125 48.1221 53.0503 48.2333 54.3081 44.7876L55.4781 44.9105C55.0276 46.7357 55.987 48.8651 57.9175 49.0991C59.848 49.3331 61.1818 47.6834 61.5738 46.022C61.603 45.8693 61.6223 45.7149 61.6323 45.5598C61.644 46.1304 61.8183 46.6859 62.1348 47.1609C62.4513 47.636 62.8965 48.0109 63.4189 48.2418C63.9407 48.4727 64.5175 48.55 65.082 48.4645C65.646 48.3791 66.1742 48.1345 66.6048 47.7594C67.377 47.0925 68.0088 46.0044 69.1788 46.2209C69.769 46.3641 70.2973 46.6945 70.684 47.1626C71.0713 47.6308 71.2959 48.2116 71.3257 48.8183C71.3655 49.1468 71.3351 49.48 71.2362 49.796C71.1379 50.1119 70.9736 50.4033 70.7542 50.651C70.5342 50.8987 70.2651 51.097 69.9633 51.2329C69.6614 51.3687 69.3344 51.4389 69.0033 51.4391C68.8658 51.4628 68.7418 51.5347 68.6523 51.6419C68.5634 51.7492 68.5154 51.8847 68.5177 52.0241C68.6347 53.6913 68.0205 55.3352 68.0731 56.9498C67.5086 57.9197 66.7522 58.7633 65.8501 59.4302C61.4275 62.4546 52.9099 61.6649 50.178 56.3238C49.5181 54.8167 49.2256 53.1748 49.3239 51.5327C49.3473 50.31 49.4701 48.9528 48.2826 48.2099H48.2943ZM52.7578 39.9204C53.6447 40.035 54.5462 39.8928 55.3552 39.5109C56.4784 40.1895 58.6663 40.2363 60.2049 39.3413C60.7794 40.0073 61.5709 40.4487 62.4396 40.5873C62.3688 40.9837 62.422 41.3922 62.5917 41.7573C62.69 41.9429 62.8204 42.1093 62.9778 42.2487C62.36 42.8127 61.9242 43.5479 61.7259 44.3606C61.6522 44.3745 61.5808 44.4002 61.5153 44.4366C60.8484 41.3186 57.198 41.1197 55.753 44.0856L54.507 43.9452C54.6474 42.4944 54.0331 40.9149 52.6467 40.3826C52.6759 40.2246 52.711 40.0725 52.7461 39.9204H52.7578ZM55.0159 37.7033C55.0803 37.1183 55.7413 37.0364 56.0104 37.5453C56.2795 38.0543 56.0104 38.3819 55.5658 38.6276C55.3974 38.5387 55.2564 38.4058 55.1575 38.243C55.0586 38.0802 55.0054 37.8937 55.0042 37.7033H55.0159ZM60.2809 37.557C60.7606 36.7673 60.9712 36.7263 60.9069 37.4459C60.9537 37.9665 61.0122 37.9607 60.4857 38.3702C60.3546 38.1191 60.2862 37.8402 60.2868 37.557H60.2809ZM56.0397 44.9046C56.0982 44.5671 56.2251 44.2453 56.4129 43.9589C56.6007 43.6726 56.8452 43.4277 57.1319 43.2397C57.4179 43.0516 57.7397 42.9242 58.0772 42.8655C58.4148 42.8067 58.7605 42.8178 59.0934 42.8981C60.5091 43.3017 61.1233 44.8286 60.8893 46.1858C60.5559 47.6073 59.1343 48.6837 57.6777 48.1455C57.0693 47.8819 56.5726 47.4132 56.2743 46.8209C55.9759 46.2286 55.8952 45.5505 56.0455 44.9046H56.0397ZM53.7933 44.4132C53.4598 45.8406 52.0383 46.917 50.5816 46.3788C50.1031 46.1824 49.6901 45.8535 49.3917 45.4308C49.0934 45.008 48.9214 44.5089 48.8968 43.992C48.5868 39.9672 54.5596 40.1135 53.7933 44.4132ZM56.221 64.2038C56.3205 63.9698 56.4082 63.3965 56.9581 61.8638C58.1743 62.0638 59.4116 62.103 60.6378 61.9808C60.1171 62.729 59.6462 63.5105 59.2279 64.3208C58.2334 64.4442 57.2261 64.4044 56.2444 64.2038H56.221ZM53.296 60.6294C53.5593 60.7757 53.8342 60.9044 54.115 61.0272C53.7248 61.807 53.3352 62.5874 52.945 63.3672C52.5835 63.2455 52.2711 63.0092 52.0558 62.6945C52.401 62.0334 52.7578 61.3782 53.1322 60.7289C53.1931 60.7072 53.2492 60.6739 53.296 60.6294ZM54.466 61.4894C54.5368 61.4192 54.5959 61.3384 54.6415 61.2495C55.2131 61.456 55.7998 61.6186 56.3965 61.7351C56.2386 62.0978 55.8115 63.455 55.6653 64.0751C54.6357 63.8528 53.9863 63.648 53.4481 63.4901C53.7933 62.8407 54.1443 62.1621 54.4953 61.4894H54.466ZM51.5878 63.5427C52.2138 64.3968 53.8108 64.5723 54.7468 64.7946C56.0648 65.1485 57.4361 65.265 58.795 65.1398C56.0935 70.8154 54.6053 76.9919 54.4251 83.2748C52.2922 82.9893 50.1411 82.8641 47.9901 82.9004C47.2992 82.8506 46.6048 82.8922 45.925 83.0232C46.6381 76.2407 48.5663 69.6419 51.6171 63.5427H51.5878ZM54.2671 98.1162L44.5327 97.5839C44.4332 94.9748 44.4683 92.3189 44.6087 89.9789C44.7196 89.9888 44.8313 89.9888 44.9422 89.9789C45.0687 89.9432 45.1797 89.8665 45.2571 89.7607C45.3346 89.6542 45.3741 89.5249 45.3692 89.3939C45.2668 88.1812 45.2962 86.9614 45.457 85.7552C45.4635 85.1854 45.5827 84.6226 45.808 84.0996C46.1414 83.6843 46.978 83.8013 47.5104 83.7896C48.7547 83.7662 49.9949 83.7954 51.231 83.8773C51.231 84.0353 51.1842 83.9124 52.2196 85.802C52.401 86.1413 52.9567 85.4276 52.8046 85.1175L52.167 83.9475C52.8807 84.0119 53.5944 84.0879 54.3724 84.1932C54.3724 84.2517 54.5187 90.7745 54.5713 91.1723C54.6591 91.7573 54.8638 92.3423 54.8931 92.9799C54.9223 93.6176 54.9106 93.3719 54.2964 98.1162H54.2671ZM74.1571 58.3362C74.4087 57.9852 75.1516 58.5234 74.8006 59.4536C74.6345 59.312 74.4906 59.1464 74.3736 58.9622C74.3443 58.8744 74.0928 58.5 74.1922 58.3538L74.1571 58.3362ZM77.2869 52.2932C77.1365 52.2255 77.0026 52.1256 76.8949 52.0007C76.6258 51.5561 77.0704 51.4742 77.4448 51.4683C77.7578 51.4787 78.0661 51.5519 78.3504 51.6835C78.6347 51.8152 78.8898 52.0025 79.1004 52.2347C78.5405 52.4933 77.9017 52.5206 77.322 52.3107L77.2869 52.2932ZM64.1068 39.353C64.1887 39.546 63.6681 39.7449 63.592 39.7683C63.506 39.79 63.4177 39.8017 63.3288 39.8034C63.475 39.6221 64.0015 39.0839 64.1068 39.353ZM31.844 48.555C32.0429 48.7832 32.0078 49.5963 32.0429 49.8771C32.1775 50.9828 32.2418 52.1586 32.3588 53.4339C29.1393 55.407 25.4624 56.5098 21.6884 56.6339C21.4778 54.2178 21.4427 51.7901 21.4193 49.3623C24.5394 49.0113 27.671 48.7188 30.8144 48.4848C31.0718 48.4614 31.6334 48.3152 31.844 48.555ZM22.0043 48.4965C21.7469 47.6015 20.7758 47.4377 19.9627 47.426C15.1481 47.3499 13.007 48.011 11.9482 47.619C11.8253 47.5722 11.5796 47.5196 11.5504 47.3616C11.5211 47.2037 11.7434 47.2037 11.9014 47.1569C13.4075 46.7771 14.938 46.5015 16.4819 46.332C16.7627 46.332 17.1137 45.5715 16.7159 45.5072C15.5861 45.437 14.4529 45.437 13.3229 45.5072C12.6502 45.5072 11.2169 45.32 10.7723 44.6063C11.0977 44.5069 11.4302 44.4326 11.7668 44.384C13.1635 44.0761 14.5752 43.8418 15.9964 43.682C16.283 43.6469 16.5814 42.8454 16.2304 42.8571C14.9969 42.9443 13.7574 42.8815 12.539 42.6699C12.1354 42.5822 11.1467 42.354 11.6908 42.2955C16.3109 41.3209 21.0105 40.7707 25.7308 40.6517C28.5446 40.6517 30.3289 41.4414 30.4108 44.2611C30.4108 45.3785 30.3172 47.7711 30.3172 47.7009C28.568 47.8823 25.0288 48.1631 22.0043 48.4965ZM43.3919 73.125C42.959 73.2479 32.4817 73.3415 27.9596 70.709C23.4376 68.0765 22.2793 62.595 21.7645 57.4529C25.5409 57.2668 29.2092 56.1296 32.429 54.1476C33.2012 60.9804 36.7346 63.8528 43.4036 62.6243C46.393 62.0393 49.2537 60.8166 52.3015 60.7289C47.6859 65.6136 44.4625 70.6329 43.3919 73.125ZM41.3737 89.0312C40.7887 88.9785 40.2037 88.844 40.1042 88.1595C40.0581 87.5745 40.0718 86.9866 40.1452 86.4045C40.6775 77.337 45.4862 69.0008 51.658 62.2908C46.6446 71.8088 46.0244 78.6708 44.9071 85.4744C44.7094 86.6964 44.6428 87.9355 44.7082 89.1716C44.1232 89.1716 41.9587 89.0663 41.3737 89.0195V89.0312ZM71.823 96.0512L63.2878 100.035C63.2141 100.035 63.1422 100.017 63.0772 99.9824C62.8666 99.8712 62.6151 99.1868 62.4922 98.9762C61.486 97.1919 60.5851 95.4369 59.6959 93.5064C61.3749 93.4128 63.0304 92.9214 64.6977 92.6874C66.5147 92.4792 68.2972 92.0328 69.9978 91.3595C70.2435 91.845 70.2435 91.845 71.823 96.0453V96.0512ZM73.1392 85.3281C73.0591 86.4063 72.8409 87.4704 72.4899 88.493C72.0043 89.6045 70.8402 90.0315 69.7696 90.3884C65.4523 91.8234 60.9215 92.5102 56.3731 92.4183C57.6192 90.1368 59.9416 83.4503 62.0535 77.6412C62.5045 76.5262 62.8947 75.3878 63.2235 74.2307C63.3738 73.7872 63.4101 73.3134 63.3294 72.8524C63.2486 72.3914 63.0532 71.9579 62.7613 71.5923C62.2933 71.0717 61.8078 70.6914 61.8546 69.9075C61.9014 69.1236 62.5683 68.445 63.1533 67.86C64.1513 66.8796 65.1973 65.9506 66.2889 65.0754C67.1079 64.4144 68.3013 63.806 68.4768 62.6711C68.5879 61.9574 68.272 61.2554 67.8918 60.3311C72.7765 63.9581 77.3454 68.0063 82.2769 71.5748C81.0104 73.4883 79.5842 75.2907 78.0123 76.9626C77.4565 77.5476 76.7955 78.4485 75.9765 78.6416H75.9121C73.8225 76.5578 71.9037 74.3102 70.1733 71.9199C69.9451 71.5923 69.4069 72.3177 69.5883 72.6102C70.9151 74.4623 72.3676 76.2214 73.9348 77.8752C73.7652 80.3673 73.5019 82.8536 73.1392 85.3223V85.3281ZM81.066 82.8828C80.2411 83.1168 79.621 82.2978 79.0945 81.8006L76.4386 79.1915C76.8715 78.9072 77.2652 78.5673 77.6086 78.1794C79.5128 76.2507 81.2216 74.1382 82.7098 71.8731C83.7921 72.6219 85.237 73.3298 85.98 74.412C87.0271 75.9447 85.1844 78.1794 84.2835 79.4196C83.8564 80.0046 83.4001 80.5896 82.938 81.1337C82.4758 81.6777 81.8733 82.6488 81.066 82.877V82.8828Z" fill="#002BFF"/>
<path d="M27.0531 15.9239C27.8479 15.8233 28.5802 15.4409 29.117 14.8462C29.6537 14.2515 29.9592 13.4839 29.9781 12.683C29.9929 12.269 29.9196 11.8565 29.7631 11.473C29.6065 11.0894 29.3702 10.7435 29.0699 10.4581C28.7696 10.1727 28.412 9.95441 28.021 9.81758C27.6299 9.68075 27.2143 9.62857 26.8016 9.66443C25.9945 9.76557 25.252 10.1578 24.7135 10.7673C24.175 11.377 23.8774 12.1621 23.8766 12.9755C23.8771 13.3822 23.9614 13.7843 24.1242 14.157C24.287 14.5296 24.5249 14.8647 24.8229 15.1413C25.121 15.418 25.4728 15.6303 25.8565 15.7649C26.2402 15.8995 26.6476 15.9537 27.0531 15.9239ZM27.176 10.5302C27.7661 10.6244 28.3046 10.9224 28.6979 11.3723C29.0911 11.8222 29.3144 12.3957 29.3288 12.9931C29.2235 16.0526 24.5435 15.5086 24.5435 12.6128C24.5581 12.2949 24.6407 11.9839 24.7859 11.7007C24.931 11.4175 25.1353 11.1688 25.3849 10.9714C25.6345 10.7739 25.9236 10.6324 26.2326 10.5563C26.5416 10.4801 26.8632 10.4713 27.176 10.5302Z" fill="#002BFF"/>
<path d="M19.6705 12.1387C20.1823 12.0588 20.6504 11.8031 20.9941 11.4156C21.3379 11.028 21.5359 10.5329 21.5542 10.0151C21.5677 9.74867 21.5231 9.48244 21.4236 9.23493C21.3241 8.98735 21.172 8.76435 20.9778 8.58136C20.7837 8.39832 20.5521 8.25967 20.2991 8.17491C20.0461 8.09014 19.7777 8.06136 19.5125 8.09049C18.9939 8.18239 18.5241 8.4536 18.1851 8.85672C17.8462 9.25985 17.6596 9.76926 17.6581 10.2959C17.657 10.5529 17.7096 10.8072 17.8127 11.0426C17.9157 11.278 18.0668 11.4893 18.2563 11.6628C18.4459 11.8364 18.6696 11.9683 18.9131 12.0503C19.1566 12.1323 19.4146 12.1623 19.6705 12.1387ZM19.7173 8.93289C20.0385 8.99274 20.3296 9.16051 20.5423 9.40838C20.7551 9.65624 20.8768 9.96939 20.8873 10.2959C20.7995 11.9281 18.2665 11.4016 18.3016 9.93324C18.3139 9.76804 18.3626 9.60757 18.4442 9.46337C18.5257 9.31917 18.6382 9.19479 18.7735 9.09921C18.9088 9.00356 19.0636 8.93909 19.2268 8.91037C19.3899 8.88159 19.5575 8.88931 19.7173 8.93289Z" fill="#002BFF"/>
<path d="M29.142 6.00156C29.6509 5.49349 29.9465 4.81015 29.9683 4.09136C29.99 3.37257 29.7362 2.67262 29.259 2.1347C29.0081 1.89328 28.7117 1.70426 28.3871 1.57868C28.0623 1.45309 27.7158 1.39346 27.3679 1.40326C27.0199 1.41306 26.6773 1.49211 26.3601 1.63577C26.043 1.77943 25.7577 1.98484 25.5208 2.24C25.0128 2.74884 24.7183 3.43259 24.6976 4.15138C24.6769 4.87017 24.9317 5.56965 25.4097 6.10686C25.6593 6.34958 25.955 6.53976 26.2794 6.66618C26.6037 6.79259 26.9501 6.85267 27.2981 6.84285C27.6461 6.83302 27.9886 6.75352 28.3053 6.60902C28.622 6.46453 28.9065 6.25796 29.142 6.00156ZM25.9186 2.66705C26.3218 2.35369 26.8249 2.19702 27.3347 2.22606C27.8445 2.2551 28.3266 2.46788 28.6915 2.825C29.3994 3.59136 29.6275 4.83156 28.7442 5.57451C28.3417 5.8886 27.839 6.04631 27.3293 6.01835C26.8194 5.99039 26.337 5.77867 25.9713 5.42241C25.7789 5.24978 25.624 5.03941 25.5164 4.80436C25.4088 4.5693 25.3507 4.31465 25.3458 4.0562C25.3408 3.79769 25.3892 3.54099 25.4877 3.30202C25.5862 3.06305 25.733 2.84689 25.9186 2.66705Z" fill="#002BFF"/>
<path d="M68.1732 79.0401C66.4182 79.0986 64.6339 79.2214 62.8672 79.3969C62.6157 79.3969 62.3875 79.9 62.4928 80.1165C62.47 80.1475 62.4507 80.1808 62.4343 80.2159C61.7967 81.7837 61.6212 82.4331 63.3118 82.4857C63.2182 83.7376 63.0837 85.4107 63.6102 86.5807C64.1367 87.7507 65.9502 87.546 66.9739 87.4641C67.9977 87.3822 68.9688 86.9493 69.3139 85.8612C69.5187 85.1943 69.466 84.6093 69.4602 82.0002L70.0978 81.889C70.3494 81.8481 70.4898 81.5146 70.5073 81.304C70.5424 80.719 70.5951 79.6777 70.168 79.2273C69.741 78.7768 68.7231 79.0225 68.1732 79.0401ZM68.7991 85.0305C68.7465 86.61 67.8339 86.686 66.2076 86.6392C65.694 86.6732 65.178 86.6117 64.6866 86.4579C64.2186 86.2356 64.1016 85.7266 64.0548 85.2879C63.9261 84.3677 63.891 83.4364 63.9495 82.5091C65.5711 82.546 67.1927 82.4144 68.7874 82.1172C68.7991 83.0707 68.8284 84.0535 68.7991 85.0305ZM69.7702 80.3797C69.8404 80.6207 69.872 80.8717 69.8638 81.1227C67.8298 81.5486 65.7495 81.71 63.6745 81.6024C63.4464 81.6024 62.8204 81.6024 62.6683 81.421C62.5162 81.2397 62.9901 80.3739 63.0427 80.1867C64.3531 80.0638 65.6694 79.9644 66.9856 79.9059C67.6631 79.8263 68.3464 79.8047 69.0273 79.8415C69.4309 79.9 69.624 79.941 69.7702 80.3797Z" fill="#002BFF"/>
<path d="M80.2592 78.39C79.528 78.1677 78.9839 78.975 78.7031 79.5074C78.623 79.6285 78.5709 79.7653 78.5499 79.9093C78.5294 80.0526 78.5405 80.1988 78.5832 80.3375C78.6253 80.4761 78.6985 80.6036 78.7962 80.7113C78.8933 80.8183 79.0138 80.9026 79.1477 80.9582C79.4865 81.0254 79.838 80.9617 80.1323 80.7809C80.426 80.5996 80.6407 80.3141 80.7331 79.9812C80.9261 79.4664 80.9144 78.5948 80.2592 78.39ZM80.189 79.7531C80.1422 80.4083 79.0658 80.2386 79.2823 79.5717C79.3186 79.4804 79.3753 79.3997 79.4484 79.3342C79.5216 79.2693 79.6087 79.2225 79.7035 79.1973C80.0194 79.1564 80.2066 79.4781 80.189 79.7589V79.7531Z" fill="#002BFF"/>
<path d="M29.6505 50.544C29.3388 50.6123 29.0546 50.7717 28.8337 51.0019C28.6129 51.2321 28.4655 51.5227 28.4103 51.8369C28.3995 51.984 28.4198 52.1316 28.4697 52.2703C28.5197 52.409 28.5983 52.5357 28.7003 52.6421C28.8023 52.7485 28.9255 52.8323 29.062 52.8881C29.1985 52.9439 29.3451 52.9704 29.4925 52.9659C29.8128 52.917 30.1067 52.7595 30.325 52.52C30.5432 52.2804 30.6727 51.9732 30.6918 51.6497C30.7032 51.5071 30.6847 51.3636 30.6373 51.2285C30.5898 51.0935 30.5147 50.9699 30.4166 50.8657C30.3184 50.7615 30.1995 50.6791 30.0676 50.6237C29.9356 50.5683 29.7935 50.5411 29.6505 50.544ZM30.0366 51.9773C29.9605 52.1937 29.592 52.1528 29.4516 52.0826C29.3471 52.043 29.2587 51.9698 29.2005 51.8744C29.1422 51.7791 29.1173 51.6671 29.1298 51.5561C29.1474 51.129 30.2121 51.5093 30.0366 51.9773Z" fill="#002BFF"/>
<path d="M24.2631 43.7872C22.7108 43.8741 21.1665 44.0696 19.6416 44.3722C19.3081 44.4307 19.0566 45.2789 19.4895 45.1912C20.8687 44.9119 22.2635 44.7165 23.6664 44.6062C24.8832 44.5243 26.2521 44.6062 26.8956 45.7762C27.0711 46.1155 27.6268 45.4076 27.4806 45.0917C26.8312 43.9568 25.4916 43.7287 24.2631 43.7872Z" fill="#002BFF"/>
<path d="M68.0326 48.8935C68.2432 48.8584 68.3895 48.5893 68.4305 48.4021C68.4773 48.2532 68.5697 48.1228 68.6943 48.0294C68.8195 47.9359 68.9704 47.8842 69.1266 47.8815C69.6005 47.8815 69.7643 47.0274 69.4367 47.0508C69.0359 47.0892 68.6586 47.2565 68.3614 47.5276C68.0637 47.7987 67.8624 48.1589 67.787 48.5542C67.7519 48.7356 67.8337 48.9286 68.0326 48.8935Z" fill="#002BFF"/>
<path d="M62.7033 51.6312C62.2464 51.0658 61.586 50.7025 60.8635 50.6193C60.1416 50.5362 59.4156 50.7398 58.8423 51.1866C58.5153 51.5641 58.2403 51.983 58.0233 52.4327C57.4383 53.2692 56.3444 53.3102 55.4552 53.5208C53.8055 53.9069 52.8461 55.8023 54.1857 57.1127C54.8117 57.6532 55.5529 58.0446 56.3525 58.2563C57.1522 58.4681 57.9894 58.495 58.8014 58.3353C62.1359 57.6041 64.002 53.3336 62.7033 51.6312ZM56.0694 55.071C55.9664 55.1912 55.8313 55.2797 55.6804 55.3263C55.5294 55.3729 55.368 55.3756 55.2153 55.3343C55.0509 55.2857 54.9012 55.1964 54.7806 55.0748C54.6601 54.9531 54.5718 54.8029 54.525 54.6381C55.0059 54.3648 55.5458 54.2104 56.0987 54.1877C56.2045 54.4746 56.194 54.7917 56.0694 55.071ZM57.7016 54.6615C57.3038 54.8955 56.5725 54.4802 56.1806 54.1701C56.9756 54.0562 57.7039 53.662 58.2339 53.0586C58.338 53.3467 58.3427 53.6616 58.2456 53.9524C58.1491 54.2433 57.9578 54.4931 57.7016 54.6615ZM58.3392 52.9592C59.012 52.1519 58.7487 51.6137 60.0182 51.4733C61.2116 52.5906 59.4507 54.5036 58.3392 52.9592ZM59.3513 57.3818C59.2009 56.9389 59.1705 56.4645 59.2629 56.0058C59.3554 55.5477 59.5671 55.1219 59.8772 54.772C60.1872 54.422 60.5844 54.1604 61.0284 54.0136C61.4725 53.8668 61.9475 53.8401 62.405 53.9361C62.2394 54.7263 61.8703 55.4597 61.335 56.0638C60.7997 56.6681 60.1159 57.1226 59.3513 57.3818Z" fill="#002BFF"/>
<path d="M27.1649 36.8076C23.8095 38.3458 20.2172 39.3032 16.5413 39.639C16.4009 40.2372 16.2935 40.8426 16.2196 41.4525C16.2196 41.6456 16.1611 41.5286 16.2898 41.6046C16.8197 41.8202 17.385 41.9353 17.957 41.9439C20.0981 42.1896 24.2926 42.3066 26.9251 41.8035C27.3842 41.7516 27.8302 41.6168 28.2413 41.4057C27.9799 39.8518 27.6203 38.316 27.1649 36.8076Z" fill="#6CECC4"/>
<path d="M24.5793 26.7993C24.434 26.5528 24.2307 26.3457 23.987 26.1958C23.7433 26.0459 23.4667 25.9579 23.1812 25.9393C23.3151 25.7283 23.3736 25.4779 23.3471 25.2293C23.3205 24.9808 23.2105 24.7485 23.0349 24.5704C22.7658 24.5704 21.7128 24.5704 21.4496 24.5704C21.3217 24.704 21.2294 24.8676 21.1812 25.0462C21.1329 25.2246 21.1302 25.4124 21.1732 25.5923C21.2163 25.7721 21.3038 25.9383 21.4277 26.0756C21.5516 26.2129 21.708 26.3169 21.8825 26.3781C21.751 26.4961 21.6368 26.6319 21.5432 26.7817C21.4399 26.629 21.3001 26.5046 21.1365 26.4197C20.9729 26.3349 20.7907 26.2923 20.6064 26.2957C20.4221 26.2992 20.2417 26.3487 20.0814 26.4397C19.9211 26.5307 19.7861 26.6603 19.6887 26.8168C19.7516 26.9686 19.7659 27.1362 19.7297 27.2965C19.2851 28.9228 18.3491 32.3743 18.3198 32.4913C20.2345 32.207 22.1212 31.7587 23.9592 31.1517L23.8715 30.8592C23.772 30.5257 24.3746 29.8705 24.5091 30.3151C24.5676 30.5082 24.6203 30.7012 24.6788 30.9001L25.3808 30.6369C25.1877 29.9875 24.9947 29.3382 24.7958 28.6947C24.5442 27.8406 24.2576 27.6183 24.5793 26.7993Z" fill="#FF3E74"/>
<path d="M17.5236 35.5512C17.3656 36.1362 17.2194 36.768 17.0673 37.3764C19.8472 37.073 22.5776 36.4185 25.1929 35.4283C25.0467 34.896 24.9004 34.3578 24.7483 33.8254C22.4127 34.6708 19.9891 35.2497 17.5236 35.5512Z" fill="#FF3E74"/>
<path d="M25.4567 33.5556C25.6088 34.0879 25.7492 34.6203 25.8954 35.1526L26.6208 34.8426C26.4746 34.3161 26.3225 33.7896 26.1704 33.2689L25.4567 33.5556Z" fill="#FF3E74"/>
<path d="M25.8948 35.1521L26.2459 36.4859C26.3336 36.8135 25.7252 37.4687 25.614 37.0299L25.1928 35.427C22.5775 36.4172 19.8472 37.0717 17.0671 37.3751C16.9852 37.7144 16.6284 39.2237 16.5406 39.639C20.2166 39.3033 23.8088 38.3458 27.1642 36.8076C26.9888 36.1524 26.8074 35.4972 26.6202 34.842L25.8948 35.1521Z" fill="#FF3E74"/>
<path d="M18.3193 32.4971C18.0502 33.515 17.7811 34.5154 17.5237 35.5508C19.9892 35.2494 22.4128 34.6704 24.7484 33.8251C24.4969 32.93 24.2336 32.0701 23.9645 31.1516C22.1248 31.761 20.2361 32.2112 18.3193 32.4971Z" fill="white"/>
<path d="M25.3862 30.6364L24.6842 30.8996C24.9533 31.783 25.2107 32.6546 25.4564 33.5555L26.1701 33.2689C25.9888 32.6546 25.4681 30.8996 25.3862 30.6364Z" fill="white"/>
<path d="M28.9192 41.0842C28.8036 40.0445 28.5821 39.0194 28.2581 38.0247C27.1993 33.8185 25.1284 27.208 25.1284 27.1437C25.2863 26.8044 24.8593 27.834 26.6845 23.5108C26.9536 22.8673 25.9357 22.7152 25.2922 22.6099C24.0057 22.4298 22.7054 22.3691 21.4078 22.4286C19.7054 22.4871 16.7278 22.5046 17.5526 24.1836C19.1614 27.5415 18.9157 27.208 19.1087 27.442C18.3424 30.1564 16.1837 38.13 15.6865 40.897C15.628 41.2305 15.4408 41.8564 15.6455 42.1782C15.8503 42.4999 16.5464 42.5701 16.8974 42.6286C19.91 43.0142 22.9579 43.0398 25.9766 42.7047C26.8834 42.6286 28.9543 42.4297 28.9192 41.0842ZM25.4735 23.5342C23.2593 23.8588 21.0087 23.845 18.7987 23.4933C21.013 23.1797 23.2609 23.1856 25.4735 23.5108V23.5342ZM20.7643 42.1197C20.0564 42.1197 16.9793 41.991 16.289 41.599C16.1603 41.523 16.2247 41.64 16.2188 41.4469C16.2188 39.9552 19.6879 27.5064 19.7288 27.2958C19.7592 27.1351 19.7451 26.9692 19.6879 26.8161C19.606 26.5645 19.723 26.8921 18.4828 24.3064C19.4616 24.4825 20.4542 24.5706 21.4487 24.5697C22.8947 24.6352 24.3431 24.5192 25.7602 24.2245L25.1752 25.5525C25.0289 25.8859 24.7423 26.3481 24.5902 26.7927C24.2684 27.6175 24.5492 27.8398 24.8125 28.6881C24.8125 28.7524 27.0062 36.0181 27.7375 38.8788C27.9702 39.707 28.15 40.5491 28.2757 41.4001C26.0059 42.2191 23.1628 42.1957 20.7643 42.1197Z" fill="#002BFF"/>
</svg>
